# xmcd CD database file
#
# Track frame offsets:
#	150
#	10932
#	24219
#	37006
#	49414
#	60988
#	72475
#	84139
#	96304
#	110581
#	123102
#	136119
#	147852
#	159530
#	171449
#	181816
#	192767
#	207679
#	218771
#	231340
#	243664
#	255312
#	269236
#	283308
#	296787
#	308315
#
# Disc length: 4298 seconds
#
# Revision: 0
# Processed by: cddbd v1.5.1PL0 Copyright (c) Steve Scherf et al.
# Submitted via: CDex 1.51
#
DISCID=8310c81a
DTITLE=Muddy Waters - Baby Please Don´t Go CD1
DYEAR=2004
DGENRE=Blues
TTITLE0=Mean Red Spider (Version 1)
TTITLE1=Jitterbug Blues
TTITLE2=Hard Day Blues
TTITLE3=Burying Ground Blues
TTITLE4=Gyspy Woman
TTITLE5=Little Anna Mae
TTITLE6=Mean Disposition
TTITLE7=I Can´t Be Satisfied
TTITLE8=I Feel Like Going Home
TTITLE9=Train Fare Home
TTITLE10=Down South Blues
TTITLE11=Kind Hearted Woman
TTITLE12=Sittin´ Here And Drinkin´
TTITLE13=You´re Gonna Miss Me
TTITLE14=Mean Red Spider (Version 2)
TTITLE15=Standin´ Here And Tremblin´
TTITLE16=Streamline Woman
TTITLE17=Muddy Jumps One
TTITLE18=Little Geneva
TTITLE19=Canary Bird
TTITLE20=Burying Ground
TTITLE21=Screamin´ And Cryin´
TTITLE22=Where´s My Woman Been
TTITLE23=Rollin´ And Tumblin´ (Part 1)
TTITLE24=Rollin´ And Tumblin´ (Part 2)
TTITLE25=Rollin´ Stone
EXTD=YEAR: 2004
EXTT0=
EXTT1=
EXTT2=
EXTT3=
EXTT4=
EXTT5=
EXTT6=
EXTT7=
EXTT8=
EXTT9=
EXTT10=
EXTT11=
EXTT12=
EXTT13=
EXTT14=
EXTT15=
EXTT16=
EXTT17=
EXTT18=
EXTT19=
EXTT20=
EXTT21=
EXTT22=
EXTT23=
EXTT24=
EXTT25=
PLAYORDER=
